<?xml version="1.0" standalone="no"?>
<!DOCTYPE svg PUBLIC "-//W3C//DTD SVG 20010904//EN"
 "http://www.w3.org/TR/2001/REC-SVG-20010904/DTD/svg10.dtd">
<svg version="1.0" xmlns="http://www.w3.org/2000/svg"
 width="700.000000pt" height="700.000000pt" viewBox="0 0 700.000000 700.000000"
 preserveAspectRatio="xMidYMid meet">
<metadata>
Created by potrace 1.11, written by Peter Selinger 2001-2013
</metadata>
<g transform="translate(0.000000,700.000000) scale(0.100000,-0.100000)"
fill="#000000" stroke="none">
<path d="M3440 6868 c-176 -22 -352 -148 -490 -349 l-59 -87 -58 12 c-60 13
-214 13 -261 1 -15 -4 -38 -9 -52 -11 -61 -11 -215 -80 -248 -111 -7 -7 -17
-13 -22 -13 -14 0 -146 -135 -175 -178 -31 -47 -35 -48 -93 -28 -23 8 -67 20
-99 26 -32 6 -71 14 -88 18 -16 3 -88 6 -160 5 -112 0 -141 -4 -210 -26 -147
-48 -247 -132 -310 -261 -52 -104 -68 -196 -62 -341 6 -134 8 -147 41 -269 13
-47 20 -86 17 -86 -11 0 -106 -93 -143 -140 -69 -88 -121 -200 -148 -319 -19
-84 -15 -298 6 -333 2 -3 -35 -34 -83 -67 -191 -131 -311 -288 -348 -455 -11
-51 -6 -179 9 -228 49 -159 160 -297 337 -418 49 -34 87 -65 84 -70 -22 -35
-25 -237 -5 -332 39 -182 161 -372 298 -463 45 -29 50 -39 51 -100 0 -23 7
-62 15 -88 8 -26 12 -47 10 -47 -2 0 12 -35 30 -78 121 -287 386 -469 694
-477 77 -2 168 7 179 19 2 2 -8 55 -22 119 -14 64 -25 118 -25 120 0 1 -44 2
-97 1 -79 -1 -111 3 -167 22 -125 43 -208 105 -275 205 -63 94 -84 171 -83
309 l1 116 -72 37 c-92 47 -155 102 -205 177 -104 154 -114 327 -31 523 17 43
30 79 28 81 -2 2 -55 29 -118 60 -162 80 -260 156 -327 256 -68 100 -74 175
-23 278 56 115 180 218 371 309 54 26 98 50 98 55 0 4 -12 33 -26 65 -42 95
-61 181 -58 263 6 191 108 350 284 445 101 54 96 43 62 121 -73 169 -99 271
-101 404 -4 258 106 366 362 355 144 -5 237 -31 415 -112 41 -18 78 -33 82
-33 5 0 14 16 20 35 25 76 90 192 134 241 88 99 223 162 358 168 86 3 160 -12
263 -55 42 -18 77 -30 79 -28 2 2 29 56 60 119 32 63 76 140 98 170 98 131
222 214 319 211 146 -3 295 -140 415 -381 31 -63 58 -117 60 -119 2 -2 37 11
78 28 101 42 178 58 258 55 203 -9 356 -113 457 -310 l32 -62 94 28 c113 34
148 41 244 45 122 6 221 -21 285 -76 14 -12 37 -49 52 -83 57 -125 38 -323
-53 -562 l-31 -81 106 -27 c166 -43 257 -99 338 -209 115 -155 129 -336 43
-540 -17 -43 -30 -79 -28 -81 2 -2 49 -26 105 -53 192 -94 313 -197 366 -309
39 -84 40 -144 0 -226 -55 -115 -176 -219 -360 -309 -59 -28 -109 -53 -111
-55 -2 -2 13 -43 32 -91 59 -147 67 -253 29 -380 -55 -181 -202 -311 -406
-359 -42 -10 -76 -22 -76 -28 0 -6 13 -55 30 -108 98 -327 44 -548 -149 -602
-90 -25 -229 -24 -332 4 -22 6 -43 10 -44 8 -2 -2 -19 -58 -38 -125 l-34 -121
41 -11 c214 -53 431 -40 584 36 126 63 231 209 266 367 19 88 14 329 -8 365
-8 13 12 30 81 69 68 38 165 126 218 196 57 76 114 200 129 278 2 13 7 35 11
50 12 47 12 191 0 256 l-12 63 86 59 c273 187 397 432 340 667 -12 49 -62 154
-98 208 -40 59 -157 168 -243 225 -47 32 -85 60 -82 62 9 10 18 128 17 213 -5
269 -173 534 -413 655 -25 12 -46 24 -48 25 -1 1 2 24 8 51 31 137 34 332 7
433 -54 199 -187 333 -383 386 -78 21 -248 26 -354 9 l-85 -13 -25 32 c-116
147 -307 258 -486 283 -68 10 -211 7 -262 -4 -40 -9 -44 -9 -60 16 -185 295
-417 440 -652 410z"/>
<path d="M3417 5834 c-1 -1 -44 -5 -96 -8 -51 -3 -103 -8 -115 -11 -11 -2 -39
-7 -61 -10 -147 -21 -377 -96 -551 -181 -981 -477 -1425 -1625 -1020 -2632
111 -275 255 -491 471 -707 163 -163 386 -318 588 -409 82 -37 87 -41 88 -70
2 -155 -1 -369 -6 -374 -4 -4 -91 -7 -193 -7 l-187 0 -2 -217 c-2 -267 9 -319
89 -421 57 -71 171 -133 257 -138 l41 -3 1 -65 c2 -134 9 -172 46 -244 47 -93
159 -179 263 -202 44 -10 873 -10 932 0 106 18 222 105 272 204 24 46 49 145
46 178 -1 10 -2 43 -1 73 l1 56 36 2 c89 6 206 69 262 139 77 99 90 158 92
422 0 162 -2 210 -12 213 -7 2 -93 4 -191 3 -98 0 -181 3 -183 7 -4 6 -7 240
-5 361 1 45 3 49 34 59 53 19 232 114 320 171 494 323 835 855 921 1437 14 98
18 145 20 255 4 234 -26 446 -95 670 -31 99 -42 129 -102 259 -63 138 -201
352 -296 461 -402 458 -944 715 -1539 729 -67 1 -123 2 -125 0z m270 -268
c123 -13 260 -42 381 -82 572 -187 1036 -679 1187 -1258 169 -652 -27 -1331
-517 -1791 -188 -176 -393 -298 -670 -399 l-48 -18 -2 -296 -3 -297 -192 0
-193 0 0 652 c0 612 1 652 18 656 9 3 35 8 57 12 56 9 159 42 233 76 104 48
199 115 292 207 184 183 287 407 305 666 l4 66 -129 0 c-97 0 -130 -3 -131
-12 -7 -115 -14 -150 -44 -237 -88 -259 -297 -447 -565 -510 -111 -26 -267
-22 -375 9 -86 24 -195 75 -234 109 -13 12 -27 21 -31 21 -15 0 -141 134 -175
186 -70 105 -122 250 -130 363 -2 25 -4 52 -4 59 -1 9 -34 12 -131 12 l-130 0
5 -73 c25 -367 259 -709 590 -863 75 -34 178 -70 235 -80 19 -3 42 -7 50 -9 8
-2 18 -4 23 -4 4 -1 7 -295 7 -654 l0 -653 -192 1 -193 0 -5 299 -5 298 -93
34 c-260 92 -475 232 -682 444 -225 229 -376 498 -464 825 -43 159 -61 421
-43 610 51 540 345 1029 803 1337 81 54 270 155 319 171 11 3 45 16 75 27 62
23 227 68 280 76 19 3 40 7 47 9 6 2 56 7 110 11 54 3 99 7 101 9 4 4 201 -3
259 -9z m717 -4405 c4 0 6 -39 4 -86 -3 -65 -9 -92 -24 -113 -44 -60 -4 -57
-890 -57 -752 1 -813 2 -837 18 -45 29 -60 63 -65 144 -2 41 -2 80 1 86 3 9
218 12 903 11 495 -1 903 -2 908 -3z m-385 -591 c1 -84 -16 -130 -61 -163 -26
-20 -44 -20 -458 -20 -413 0 -433 1 -458 20 -44 32 -62 79 -62 163 l0 75 519
1 519 0 1 -76z"/>
<path d="M3372 4259 c-99 -25 -165 -62 -238 -135 -166 -165 -199 -425 -79
-630 40 -69 129 -154 201 -191 300 -158 663 6 748 338 13 53 15 186 3 234 -26
101 -73 181 -149 256 -125 125 -309 173 -486 128z"/>
</g>
</svg>
